<?xml version="1.0" encoding="utf-8"?>
<!-- Generator: Adobe Illustrator 20.1.0, SVG Export Plug-In . SVG Version: 6.00 Build 0)  -->
<svg version="1.1" id="Layer_1" xmlns="http://www.w3.org/2000/svg" xmlns:xlink="http://www.w3.org/1999/xlink" x="0px" y="0px"
	 viewBox="0 0 360 72.1" style="enable-background:new 0 0 360 72.1;" xml:space="preserve">
<style type="text/css">
	.st0{fill:#BF9F62;}
	.st1{fill-rule:evenodd;clip-rule:evenodd;fill:#536267;}
</style>
<g>
	<g>
		<path class="st0" d="M85.5,35.2v2.3h-5.3v9.9h-2.6V24.6h9.1v2.3h-6.5v8.3H85.5z"/>
		<path class="st0" d="M91,24.6v22.9h-2.6V24.6H91z"/>
		<path class="st0" d="M103.2,30.1v0.6h-2.4v-0.8c0-2.1-0.8-3.3-2.6-3.3c-1.8,0-2.6,1.2-2.6,3.2c0,5.1,7.7,5.6,7.7,12.1
			c0,3.5-1.7,5.7-5.2,5.7c-3.5,0-5.1-2.3-5.1-5.7v-1.3h2.4v1.4c0,2.1,0.9,3.3,2.7,3.3c1.8,0,2.7-1.2,2.7-3.3c0-5.1-7.7-5.6-7.7-12
			c0-3.5,1.6-5.7,5.1-5.7C101.6,24.3,103.2,26.6,103.2,30.1z"/>
		<path class="st0" d="M107.7,37.2v10.3h-2.6V24.6h2.6v10.3h5.6V24.6h2.6v22.9h-2.6V37.2H107.7z"/>
		<path class="st0" d="M126.3,34.7V37h-5.6v8.1h6.9v2.3h-9.4V24.6h9.4v2.3h-6.9v7.8H126.3z"/>
		<path class="st0" d="M134.7,24.6c3.6,0,5.1,1.8,5.1,5.2v1.9c0,2.5-0.9,4.1-2.8,4.7c2.1,0.6,2.9,2.3,2.9,4.8v3.6c0,1,0,2,0.5,2.7
			h-2.6c-0.3-0.7-0.4-1.2-0.4-2.8v-3.6c0-2.6-1.2-3.4-3.3-3.4h-1.8v9.8h-2.6V24.6H134.7z M134.1,35.4c2,0,3.2-0.7,3.2-3.1V30
			c0-2.1-0.8-3.1-2.7-3.1h-2.5v8.5H134.1z"/>
		<path class="st0" d="M157.1,30.1v2.1h-2.4V30c0-2.1-0.8-3.3-2.7-3.3c-1.8,0-2.7,1.2-2.7,3.3v12.1c0,2.1,0.9,3.3,2.7,3.3
			c1.9,0,2.7-1.2,2.7-3.3v-3h2.4V42c0,3.5-1.6,5.8-5.2,5.8c-3.5,0-5.1-2.3-5.1-5.8V30.1c0-3.5,1.6-5.8,5.1-5.8
			C155.4,24.3,157.1,26.6,157.1,30.1z"/>
		<path class="st0" d="M161.6,42.9l-0.9,4.6h-2.4l4.4-22.9h3.7l4.4,22.9h-2.6l-0.9-4.6H161.6z M162,40.7h5.1l-2.6-13.2L162,40.7z"/>
		<path class="st0" d="M177.5,24.6c3.6,0,5.1,2.1,5.1,5.6v2.8c0,3.6-1.7,5.5-5.3,5.5h-2.3v9h-2.6V24.6H177.5z M177.3,36.2
			c1.9,0,2.8-0.9,2.8-3.1v-3c0-2.1-0.8-3.1-2.6-3.1h-2.5v9.3H177.3z"/>
		<path class="st0" d="M187,24.6v22.9h-2.6V24.6H187z"/>
		<path class="st0" d="M192.6,47.5V26.9h-4.2v-2.3h11v2.3h-4.2v20.6H192.6z"/>
		<path class="st0" d="M202.2,42.9l-0.9,4.6h-2.4l4.4-22.9h3.7l4.4,22.9h-2.6l-0.9-4.6H202.2z M202.5,40.7h5.1L205,27.5L202.5,40.7z
			"/>
		<path class="st0" d="M213.1,47.5V24.6h2.6v20.6h6.5v2.3H213.1z"/>
		<path class="st0" d="M231.1,24.6v22.9h-2.6V24.6H231.1z"/>
		<path class="st0" d="M235.6,47.5h-2.3V24.6h3.2l5.3,16.6V24.6h2.3v22.9h-2.7L235.6,29V47.5z"/>
		<path class="st0" d="M248.4,24.6l3.7,19.9l3.7-19.9h2.4l-4.3,22.9h-3.8l-4.3-22.9H248.4z"/>
		<path class="st0" d="M267.9,34.7V37h-5.6v8.1h6.9v2.3h-9.4V24.6h9.4v2.3h-6.9v7.8H267.9z"/>
		<path class="st0" d="M281.2,30.1v0.6h-2.4v-0.8c0-2.1-0.8-3.3-2.6-3.3c-1.8,0-2.6,1.2-2.6,3.2c0,5.1,7.7,5.6,7.7,12.1
			c0,3.5-1.7,5.7-5.2,5.7c-3.5,0-5.1-2.3-5.1-5.7v-1.3h2.4v1.4c0,2.1,0.9,3.3,2.7,3.3c1.8,0,2.7-1.2,2.7-3.3c0-5.1-7.7-5.6-7.7-12
			c0-3.5,1.6-5.7,5.1-5.7C279.5,24.3,281.2,26.6,281.2,30.1z"/>
		<path class="st0" d="M286.4,47.5V26.9h-4.2v-2.3h11v2.3H289v20.6H286.4z"/>
		<path class="st0" d="M303.1,47.5h-2.5l-3.8-18.2v18.3h-2.2V24.6h3.6l3.8,18.3l3.6-18.3h3.6v22.9h-2.4V29.1L303.1,47.5z"/>
		<path class="st0" d="M319.6,34.7V37H314v8.1h6.9v2.3h-9.4V24.6h9.4v2.3H314v7.8H319.6z"/>
		<path class="st0" d="M325.2,47.5h-2.3V24.6h3.2l5.3,16.6V24.6h2.3v22.9H331L325.2,29V47.5z"/>
		<path class="st0" d="M339.3,47.5V26.9h-4.2v-2.3h11v2.3h-4.2v20.6H339.3z"/>
		<path class="st0" d="M357.4,30.1v0.6H355v-0.8c0-2.1-0.8-3.3-2.6-3.3c-1.8,0-2.6,1.2-2.6,3.2c0,5.1,7.7,5.6,7.7,12.1
			c0,3.5-1.7,5.7-5.2,5.7c-3.5,0-5.1-2.3-5.1-5.7v-1.3h2.4v1.4c0,2.1,0.9,3.3,2.7,3.3c1.8,0,2.7-1.2,2.7-3.3c0-5.1-7.7-5.6-7.7-12
			c0-3.5,1.6-5.7,5.1-5.7C355.8,24.3,357.4,26.6,357.4,30.1z"/>
	</g>
	<g>
		<g>
			<path class="st1" d="M26.5,44.2c7-4.7,12.1-8.8,15.4-12.3C48.4,25,52.4,16,45.2,8.1c2.1,7,0.2,14-4.4,19.6
				c-2.8,3.4-5.7,6.4-8.5,9.1C26.6,42,9.9,53.9,15.7,63C13.6,54.9,20.4,48.3,26.5,44.2z"/>
			<path class="st1" d="M35.9,42.2c3.8-2.6,6.9-4.9,9.3-7c6.9-5.9,11-15.8,4.2-23.5c4.6,11.8-6.3,21.3-14.4,28
				c-2.5,2-5.6,4.7-9.4,7.9c-5.3,4.6-10.1,8.6-8.4,16.6C15,54.4,29.1,46.8,35.9,42.2z"/>
			<path class="st1" d="M54.9,15.9c1.9,9.5-2.9,15.9-9.8,21.5c-5.2,4.2-10.2,7.9-15.7,11.6c-8.5,5.8-12.2,11.1-10.8,16
				c0.9-8.7,8.6-13.1,15.5-16.8c8.8-4.8,14.8-8.9,18.2-12.4C57.7,30.1,59.1,23,54.9,15.9z"/>
		</g>
		<path class="st1" d="M56.4,16.6c2.8,5.7,2.9,10.5,0.3,14.5c3,8.1,1,17.2-5.1,23.2l-3.5-13.7c-0.8,0.9-2.1,1.7-3.8,2.6l2.2,22.3
			c8.9-4.2,15.3-12.3,17.3-22C65.7,33.9,63,23.9,56.4,16.6z"/>
		<path class="st1" d="M34,48.9v19.4c3,0.2,6.4-0.4,9.2-1.7L40.9,45C39.4,46.1,37,47.4,34,48.9z"/>
		<path class="st1" d="M23.2,67.2c2.9,0.8,5.8,1.2,8.7,1.4l0.2-18.4C29,52,26.2,53.9,24,55.9L23.2,67.2z"/>
		<polygon class="st1" points="25.7,41.3 31.8,35.5 32.4,3.5 28.2,14.2 		"/>
		<polygon class="st1" points="38.5,14.4 34,3.7 34,33 39.3,27.3 		"/>
		<path class="st1" d="M22.2,44.5L24.1,26c-3.7,7.9-6.5,17-8.5,27.1C16.6,50.5,18.8,47.6,22.2,44.5z"/>
		<path class="st1" d="M14.6,54c-5.4-6.4-7.2-15.1-4.8-23c2.4-8,8.6-14.3,16.6-16.7c0,0,1.1-2.5,3.4-7.4C17.4,8.5,7.2,17.3,3.7,29.4
			c-3.4,12,0.6,25,10.3,32.9C13.6,59.5,13.8,56.7,14.6,54z"/>
		<path class="st1" d="M45,16.4c0.1-2.4-0.1-4.9-0.5-7.3c-2.3-1.1-4.9-1.9-7.4-2.2l3.5,7.3C42.2,14.8,43.7,15.5,45,16.4z"/>
		<path class="st1" d="M53.5,24.5c1.1-4.2,1.1-7.4,0.2-9.6c-0.8-1-1.6-1.9-2.6-2.7C53.8,15.9,54.6,20,53.5,24.5z"/>
	</g>
</g>
</svg>
